<svg width="275" height="50" viewBox="0 0 275 50" fill="none" xmlns="http://www.w3.org/2000/svg">
<path d="M53.584 24.2062C53.584 14.3118 59.6367 10.627 65.0624 10.627C68.7669 10.627 71.5839 12.3108 73.0446 14.3118V11.1544H80.6621V37.5227C80.6621 47.6817 72.211 49.5232 66.7332 49.5232C61.9848 49.5232 54.2128 48.1548 54.1607 40.1019H60.8907C61.047 42.7336 64.0724 43.5764 66.5248 43.5764C70.1251 43.5764 73.0464 41.7875 73.0464 37.5227V34.155C71.5857 36.156 68.7687 37.8398 65.0641 37.8398C59.5864 37.8398 53.5858 34.2076 53.5858 24.208L53.584 24.2062ZM67.1482 31.4163C70.4862 31.4163 73.4093 29.1525 73.4093 24.2062C73.4093 19.2599 70.488 16.9961 67.1482 16.9961C63.8083 16.9961 60.7829 19.3125 60.7829 24.2062C60.7829 29.1 63.7041 31.4163 67.1482 31.4163Z" fill="#fff"/>
<path d="M83.7397 24.7862C83.7397 14.5746 90.1571 10.627 97.356 10.627C104.555 10.627 110.243 14.3118 110.243 24.6793C110.243 25.6798 110.191 26.2054 110.087 26.7854H90.9925C91.4094 31.3638 93.7575 33.2071 97.5141 33.2071C101.009 33.2071 102.523 31.7861 103.148 29.5748H109.878C108.522 35.8388 103.723 39.0488 97.4099 39.0488C90.5236 39.0488 83.7415 35.2063 83.7415 24.7844L83.7397 24.7862ZM103.042 22.2596C102.938 19.1022 101.321 16.4705 97.1476 16.4705C93.5994 16.4705 91.5136 18.4715 90.9908 22.2596H103.042V22.2596Z" fill="#fff"/>
<path d="M115.145 30.3141V17.1028H110.555V11.156H115.145V4.10352H122.762V11.156H128.136V17.1028H122.762V29.2085C122.762 31.3146 123.388 32.7356 126.205 32.7356C126.78 32.7356 127.249 32.7356 128.344 32.6305V38.367C127.144 38.6824 125.684 38.8945 124.171 38.8945C118.745 38.8945 115.145 36.4204 115.145 30.3159V30.3141Z" fill="#fff"/>
<path d="M132.206 11.1584H139.824V15.1061C140.815 12.7371 143.789 10.6328 147.806 10.6328C153.492 10.6328 159.701 14.7907 159.701 24.8446C159.701 34.8986 153.492 39.0565 147.806 39.0565C143.789 39.0565 140.815 36.9503 139.824 34.5832V48.5304H132.206V11.1584ZM145.979 32.6855C149.369 32.6855 152.5 30.2115 152.5 24.8428C152.5 19.4742 149.371 17.0001 145.979 17.0001C142.587 17.0001 139.509 19.4742 139.509 24.8428C139.509 30.2115 142.639 32.6855 145.979 32.6855Z" fill="#fff"/>
<path d="M161.737 24.8388C161.737 14.8918 168.519 10.627 175.353 10.627C182.187 10.627 188.969 14.89 188.969 24.8388C188.969 34.7876 182.187 39.0506 175.353 39.0506C168.519 39.0506 161.737 34.7876 161.737 24.8388ZM175.353 32.6815C179.006 32.6815 181.823 30.26 181.823 24.8388C181.823 19.4176 179.006 16.9961 175.353 16.9961C171.701 16.9961 168.884 19.4176 168.884 24.8388C168.884 30.26 171.701 32.6815 175.353 32.6815Z" fill="#fff"/>
<path d="M188.134 11.1582H195.334L199.977 31.1066H200.185L205.559 11.1582H212.133L217.506 31.1066H217.715L222.357 11.1582H229.558L222.307 38.527H213.803L208.847 21.368L203.942 38.527H195.387L188.136 11.1582H188.134Z" fill="#fff"/>
<path d="M228.723 24.7862C228.723 14.5746 235.141 10.627 242.339 10.627C249.538 10.627 255.226 14.3118 255.226 24.6793C255.226 25.6798 255.174 26.2054 255.07 26.7854H235.976C236.393 31.3638 238.741 33.2071 242.498 33.2071C245.994 33.2071 247.506 31.7861 248.132 29.5748H254.862C253.505 35.8388 248.705 39.0488 242.393 39.0488C235.507 39.0488 228.725 35.2063 228.725 24.7844L228.723 24.7862ZM248.026 22.2596C247.921 19.1022 246.305 16.4705 242.131 16.4705C238.583 16.4705 236.497 18.4715 235.976 22.2596H248.027H248.026Z" fill="#fff"/>
<path d="M264.879 38.5224H257.261V11.1536H264.879V17.7856H265.087C266.027 13.7854 268.582 10.9434 272.913 10.9434C273.538 10.9434 274.217 10.9959 275.001 11.2062V17.6804C274.165 17.5753 273.54 17.5227 272.861 17.5227C268.792 17.5227 264.879 19.7866 264.879 26.4185V38.5242V38.5224Z" fill="#fff"/>
<path d="M42.4083 10.0691L30.47 3.11631C29.6939 2.665 28.704 3.07825 28.4722 3.95006L26.2642 12.2604C26.1043 12.8621 26.3648 13.4965 26.9002 13.8064L33.1937 17.4713C33.6751 17.7541 33.9626 18.2688 33.9626 18.8235V30.534C33.9626 31.0886 33.6733 31.6034 33.1937 31.8771L23.1382 37.7315C22.6657 38.0142 22.0764 38.0142 21.6057 37.7315L11.5502 31.8771C11.0687 31.6052 10.7795 31.0886 10.7795 30.534V18.8235C10.7795 18.2706 11.0687 17.7541 11.5502 17.4713L17.8419 13.8064C18.3754 13.4947 18.6377 12.8603 18.4779 12.2604L16.2716 3.95188C16.0399 3.07825 15.05 2.665 14.2738 3.11812L2.34274 10.0691C0.887512 10.9046 0 12.4706 0 14.1544V34.7644C0 36.4573 0.887512 38.0124 2.34274 38.8588L20.0337 49.1575C21.4781 50.0039 23.2622 50.0039 24.7084 49.1575L42.4083 38.8588C43.8528 38.0124 44.7421 36.4573 44.7421 34.7644V14.1544C44.7421 12.4724 43.8546 10.9064 42.4083 10.0691Z" fill="#fff"/>
<path d="M18.3967 1.7893C19.3489 0.933795 22.4767 -1.30827 26.3232 1.80198C26.5244 1.96511 26.5981 2.2388 26.51 2.48348L22.9474 12.2782C22.7552 12.8075 22.0132 12.8075 21.821 12.2782L18.2332 2.45267C18.1469 2.21705 18.2134 1.95605 18.3967 1.7893V1.7893Z" fill="#fff"/>
</svg>
